<?xml version="1.0" encoding="UTF-8" standalone="no"?>
<!DOCTYPE svg PUBLIC "-//W3C//DTD SVG 1.1//EN"
 "http://www.w3.org/Graphics/SVG/1.1/DTD/svg11.dtd">
<!-- Generated by graphviz version 2.40.1 (20161225.0304)
 -->
<!-- Title: a_graph Pages: 1 -->
<svg width="605pt" height="1091pt"
 viewBox="0.00 0.00 604.50 1091.00" xmlns="http://www.w3.org/2000/svg" xmlns:xlink="http://www.w3.org/1999/xlink">
<g id="graph0" class="graph" transform="scale(1 1) rotate(0) translate(4 1087)">
<title>a_graph</title>
<polygon fill="#ffffff" stroke="transparent" points="-4,4 -4,-1087 600.5,-1087 600.5,4 -4,4"/>
<!-- T6914 -->
<g id="node1" class="node">
<title>T6914</title>
<polygon fill="none" stroke="#0058ad" points="525,-1053.5 525,-1082.5 582,-1082.5 582,-1053.5 525,-1053.5"/>
<text text-anchor="middle" x="553.5" y="-1064.3" font-family="Times,serif" font-size="14.00" fill="#0058ad">a 82 24</text>
</g>
<!-- T6923 -->
<g id="node2" class="node">
<title>T6923</title>
<polygon fill="none" stroke="#0058ad" points="304.5,-972.5 304.5,-1001.5 498.5,-1001.5 498.5,-972.5 304.5,-972.5"/>
<text text-anchor="middle" x="373" y="-983.3" font-family="Times,serif" font-size="14.00" fill="#0058ad">r 65 [1 2 11 12 25 27]</text>
<polyline fill="none" stroke="#0058ad" points="441.5,-972.5 441.5,-1001.5 "/>
<text text-anchor="middle" x="470" y="-983.3" font-family="Times,serif" font-size="14.00" fill="#0058ad">a 82 25</text>
</g>
<!-- T6914&#45;&gt;T6923 -->
<g id="edge1" class="edge">
<title>T6914:f0&#45;&gt;T6923:f1</title>
<path fill="none" stroke="#c02700" d="M546.958,-1053.1434C538.2002,-1034.1438 522.1198,-1002.3536 507.9184,-991.1002"/>
<polygon fill="#c02700" stroke="#c02700" points="509.0659,-987.7825 498.5,-987 506.2718,-994.2007 509.0659,-987.7825"/>
<text text-anchor="middle" x="548.5" y="-1023.8" font-family="Times,serif" font-size="14.00" fill="#c02700">ww</text>
</g>
<!-- T6931 -->
<g id="node10" class="node">
<title>T6931</title>
<polygon fill="none" stroke="#0058ad" points="391,-891.5 391,-920.5 548,-920.5 548,-891.5 391,-891.5"/>
<text text-anchor="middle" x="419.5" y="-902.3" font-family="Times,serif" font-size="14.00" fill="#0058ad">a 82 26</text>
<polyline fill="none" stroke="#0058ad" points="448,-891.5 448,-920.5 "/>
<text text-anchor="middle" x="498" y="-902.3" font-family="Times,serif" font-size="14.00" fill="#0058ad">r 81 [1 2 4 5 6]</text>
</g>
<!-- T6923&#45;&gt;T6931 -->
<g id="edge2" class="edge">
<title>T6923:f1&#45;&gt;T6931:f0</title>
<path fill="none" stroke="#c02700" d="M470.5,-972C470.5,-943.8262 431.1037,-950.5425 421.5624,-930.8186"/>
<polygon fill="#c02700" stroke="#c02700" points="424.981,-930.0669 419.5,-921 418.1305,-931.5059 424.981,-930.0669"/>
<text text-anchor="middle" x="471.5" y="-942.8" font-family="Times,serif" font-size="14.00" fill="#c02700">ww</text>
</g>
<!-- T6901 -->
<g id="node3" class="node">
<title>T6901</title>
<polygon fill="none" stroke="#0058ad" points="447,-162.5 447,-191.5 504,-191.5 504,-162.5 447,-162.5"/>
<text text-anchor="middle" x="475.5" y="-173.3" font-family="Times,serif" font-size="14.00" fill="#0058ad">a 82 21</text>
</g>
<!-- T6903 -->
<g id="node5" class="node">
<title>T6903</title>
<polygon fill="none" stroke="#0058ad" points="469,-81.5 469,-110.5 526,-110.5 526,-81.5 469,-81.5"/>
<text text-anchor="middle" x="497.5" y="-92.3" font-family="Times,serif" font-size="14.00" fill="#0058ad">a 82 22</text>
</g>
<!-- T6901&#45;&gt;T6903 -->
<g id="edge3" class="edge">
<title>T6901:f0&#45;&gt;T6903:f0</title>
<path fill="none" stroke="#c02700" d="M479.5351,-162.1434C482.6983,-150.497 487.1669,-134.0446 490.8559,-120.4623"/>
<polygon fill="#c02700" stroke="#c02700" points="494.2469,-121.3303 493.4904,-110.7625 487.4916,-119.4954 494.2469,-121.3303"/>
<text text-anchor="middle" x="498.5" y="-132.8" font-family="Times,serif" font-size="14.00" fill="#c02700">ww</text>
</g>
<!-- T6871 -->
<g id="node4" class="node">
<title>T6871</title>
<polygon fill="none" stroke="#0058ad" points="446,-567.5 446,-596.5 503,-596.5 503,-567.5 446,-567.5"/>
<text text-anchor="middle" x="474.5" y="-578.3" font-family="Times,serif" font-size="14.00" fill="#0058ad">a 58 30</text>
</g>
<!-- T6875 -->
<g id="node11" class="node">
<title>T6875</title>
<polygon fill="none" stroke="#0058ad" points="381.5,-486.5 381.5,-515.5 495.5,-515.5 495.5,-486.5 381.5,-486.5"/>
<text text-anchor="middle" x="410" y="-497.3" font-family="Times,serif" font-size="14.00" fill="#0058ad">a 82 16</text>
<polyline fill="none" stroke="#0058ad" points="438.5,-486.5 438.5,-515.5 "/>
<text text-anchor="middle" x="467" y="-497.3" font-family="Times,serif" font-size="14.00" fill="#0058ad">a 58 31</text>
</g>
<!-- T6871&#45;&gt;T6875 -->
<g id="edge4" class="edge">
<title>T6871:f0&#45;&gt;T6875:f1</title>
<path fill="none" stroke="#c02700" d="M472.0517,-567.3675C470.4116,-556.5262 468.4318,-541.1058 467.7471,-526.1864"/>
<polygon fill="#c02700" stroke="#c02700" points="471.2416,-525.9122 467.5,-516 464.2436,-526.082 471.2416,-525.9122"/>
<text text-anchor="middle" x="480.5" y="-537.8" font-family="Times,serif" font-size="14.00" fill="#c02700">ww</text>
</g>
<!-- T6907 -->
<g id="node6" class="node">
<title>T6907</title>
<polygon fill="none" stroke="#0058ad" points="508,-.5 508,-29.5 565,-29.5 565,-.5 508,-.5"/>
<text text-anchor="middle" x="536.5" y="-11.3" font-family="Times,serif" font-size="14.00" fill="#0058ad">a 82 23</text>
</g>
<!-- T6903&#45;&gt;T6907 -->
<g id="edge5" class="edge">
<title>T6903:f0&#45;&gt;T6907:f0</title>
<path fill="none" stroke="#c02700" d="M504.6532,-81.1434C510.3157,-69.3828 518.3378,-52.7216 524.9138,-39.0637"/>
<polygon fill="#c02700" stroke="#c02700" points="528.2074,-40.2909 529.3921,-29.7625 521.9004,-37.2541 528.2074,-40.2909"/>
<text text-anchor="middle" x="530.5" y="-51.8" font-family="Times,serif" font-size="14.00" fill="#c02700">ww</text>
</g>
<!-- T6907&#45;&gt;T6914 -->
<g id="edge6" class="edge">
<title>T6907:f0&#45;&gt;T6914:f0</title>
<path fill="none" stroke="#c02700" d="M548.937,-29.753C560.6791,-45.2218 576.5,-70.7492 576.5,-96 576.5,-987 576.5,-987 576.5,-987 576.5,-1006.6664 570.1482,-1028.0321 564.1206,-1043.88"/>
<polygon fill="#c02700" stroke="#c02700" points="560.766,-1042.8407 560.2764,-1053.4243 567.2591,-1045.4561 560.766,-1042.8407"/>
<text text-anchor="middle" x="586.5" y="-537.8" font-family="Times,serif" font-size="14.00" fill="#c02700">ww</text>
</g>
<!-- T6883 -->
<g id="node7" class="node">
<title>T6883</title>
<polygon fill="none" stroke="#0058ad" points="353,-405.5 353,-434.5 410,-434.5 410,-405.5 353,-405.5"/>
<text text-anchor="middle" x="381.5" y="-416.3" font-family="Times,serif" font-size="14.00" fill="#0058ad">a 82 17</text>
</g>
<!-- T6886 -->
<g id="node12" class="node">
<title>T6886</title>
<polygon fill="none" stroke="#0058ad" points="240,-324.5 240,-353.5 549,-353.5 549,-324.5 240,-324.5"/>
<text text-anchor="middle" x="268.5" y="-335.3" font-family="Times,serif" font-size="14.00" fill="#0058ad">a 82 18</text>
<polyline fill="none" stroke="#0058ad" points="297,-324.5 297,-353.5 "/>
<text text-anchor="middle" x="423" y="-335.3" font-family="Times,serif" font-size="14.00" fill="#0058ad">r 82 [1 2 4 5 7 6 8 9 10 12 14 15 16 17 18]</text>
</g>
<!-- T6883&#45;&gt;T6886 -->
<g id="edge7" class="edge">
<title>T6883:f0&#45;&gt;T6886:f0</title>
<path fill="none" stroke="#c02700" d="M355.2915,-405.4245C329.9947,-391.2782 293.1958,-370.4755 276.855,-360.1414"/>
<polygon fill="#c02700" stroke="#c02700" points="278.6304,-357.1026 268.5,-354 274.4845,-362.7428 278.6304,-357.1026"/>
<text text-anchor="middle" x="332.5" y="-375.8" font-family="Times,serif" font-size="14.00" fill="#c02700">ww</text>
</g>
<!-- T6895 -->
<g id="node8" class="node">
<title>T6895</title>
<polygon fill="none" stroke="#0058ad" points="353,-243.5 353,-272.5 510,-272.5 510,-243.5 353,-243.5"/>
<text text-anchor="middle" x="381.5" y="-254.3" font-family="Times,serif" font-size="14.00" fill="#0058ad">a 82 20</text>
<polyline fill="none" stroke="#0058ad" points="410,-243.5 410,-272.5 "/>
<text text-anchor="middle" x="460" y="-254.3" font-family="Times,serif" font-size="14.00" fill="#0058ad">r 81 [1 2 4 5 6]</text>
</g>
<!-- T6895&#45;&gt;T6901 -->
<g id="edge8" class="edge">
<title>T6895:f0&#45;&gt;T6901:f0</title>
<path fill="none" stroke="#c02700" d="M381.5,-243C381.5,-235.4308 414.5672,-213.623 441.4766,-197.1293"/>
<polygon fill="#c02700" stroke="#c02700" points="443.5773,-199.9486 450.3097,-191.7678 439.9451,-193.9646 443.5773,-199.9486"/>
<text text-anchor="middle" x="430.5" y="-213.8" font-family="Times,serif" font-size="14.00" fill="#c02700">ww</text>
</g>
<!-- T6845 -->
<g id="node9" class="node">
<title>T6845</title>
<polygon fill="none" stroke="#0058ad" points="388.5,-648.5 388.5,-677.5 502.5,-677.5 502.5,-648.5 388.5,-648.5"/>
<text text-anchor="middle" x="417" y="-659.3" font-family="Times,serif" font-size="14.00" fill="#0058ad">a 82 12</text>
<polyline fill="none" stroke="#0058ad" points="445.5,-648.5 445.5,-677.5 "/>
<text text-anchor="middle" x="474" y="-659.3" font-family="Times,serif" font-size="14.00" fill="#0058ad">a 58 29</text>
</g>
<!-- T6845&#45;&gt;T6871 -->
<g id="edge9" class="edge">
<title>T6845:f1&#45;&gt;T6871:f0</title>
<path fill="none" stroke="#c02700" d="M474.5,-648C474.5,-634.3521 474.5,-619.1166 474.5,-606.7254"/>
<polygon fill="#c02700" stroke="#c02700" points="478.0001,-606.6796 474.5,-596.6796 471.0001,-606.6797 478.0001,-606.6796"/>
<text text-anchor="middle" x="484.5" y="-618.8" font-family="Times,serif" font-size="14.00" fill="#c02700">ww</text>
</g>
<!-- T6935 -->
<g id="node14" class="node">
<title>T6935</title>
<polygon fill="none" stroke="#0058ad" points="291,-810.5 291,-839.5 448,-839.5 448,-810.5 291,-810.5"/>
<text text-anchor="middle" x="341" y="-821.3" font-family="Times,serif" font-size="14.00" fill="#0058ad">r 81 [1 2 4 5 6]</text>
<polyline fill="none" stroke="#0058ad" points="391,-810.5 391,-839.5 "/>
<text text-anchor="middle" x="419.5" y="-821.3" font-family="Times,serif" font-size="14.00" fill="#0058ad">a 82 27</text>
</g>
<!-- T6931&#45;&gt;T6935 -->
<g id="edge10" class="edge">
<title>T6931:f0&#45;&gt;T6935:f1</title>
<path fill="none" stroke="#c02700" d="M419.5,-891C419.5,-872.2292 419.5,-865.1168 419.5,-850.3535"/>
<polygon fill="#c02700" stroke="#c02700" points="423.0001,-850 419.5,-840 416.0001,-850 423.0001,-850"/>
<text text-anchor="middle" x="429.5" y="-861.8" font-family="Times,serif" font-size="14.00" fill="#c02700">ww</text>
</g>
<!-- T6875&#45;&gt;T6883 -->
<g id="edge11" class="edge">
<title>T6875:f0&#45;&gt;T6883:f0</title>
<path fill="none" stroke="#c02700" d="M409.5,-486C409.5,-471.1698 403.4347,-455.8474 396.9499,-443.7034"/>
<polygon fill="#c02700" stroke="#c02700" points="399.7947,-441.6303 391.7672,-434.7158 393.7307,-445.1271 399.7947,-441.6303"/>
<text text-anchor="middle" x="417.5" y="-456.8" font-family="Times,serif" font-size="14.00" fill="#c02700">ww</text>
</g>
<!-- T6886&#45;&gt;T6895 -->
<g id="edge12" class="edge">
<title>T6886:f0&#45;&gt;T6895:f0</title>
<path fill="none" stroke="#c02700" d="M268.5,-324C268.5,-279.9524 299.9336,-260.8281 342.3881,-258.2941"/>
<polygon fill="#c02700" stroke="#c02700" points="342.606,-261.7894 352.5,-258 342.4024,-254.7923 342.606,-261.7894"/>
<text text-anchor="middle" x="285.5" y="-294.8" font-family="Times,serif" font-size="14.00" fill="#c02700">ww</text>
</g>
<!-- T6955 -->
<g id="node13" class="node">
<title>T6955</title>
<polygon fill="none" stroke="#0058ad" points="0,-729.5 0,-758.5 447,-758.5 447,-729.5 0,-729.5"/>
<text text-anchor="middle" x="195" y="-740.3" font-family="Times,serif" font-size="14.00" fill="#0058ad">r 82 [1 2 4 5 7 6 8 9 10 12 14 15 16 17 18 20 21 22 23 24 25 26 27]</text>
<polyline fill="none" stroke="#0058ad" points="390,-729.5 390,-758.5 "/>
<text text-anchor="middle" x="418.5" y="-740.3" font-family="Times,serif" font-size="14.00" fill="#0058ad">a 82 29</text>
</g>
<!-- T6955&#45;&gt;T6845 -->
<g id="edge13" class="edge">
<title>T6955:f1&#45;&gt;T6845:f0</title>
<path fill="none" stroke="#c02700" d="M418.5,-729C418.5,-710.2147 417.1284,-703.1238 416.6569,-688.3584"/>
<polygon fill="#c02700" stroke="#c02700" points="420.1512,-687.9458 416.5,-678 413.152,-688.0519 420.1512,-687.9458"/>
<text text-anchor="middle" x="428.5" y="-699.8" font-family="Times,serif" font-size="14.00" fill="#c02700">ww</text>
</g>
<!-- T6935&#45;&gt;T6955 -->
<g id="edge14" class="edge">
<title>T6935:f1&#45;&gt;T6955:f1</title>
<path fill="none" stroke="#c02700" d="M419.5,-810C419.5,-791.2256 418.8142,-784.1185 418.5785,-769.3548"/>
<polygon fill="#c02700" stroke="#c02700" points="422.0758,-768.9732 418.5,-759 415.076,-769.0263 422.0758,-768.9732"/>
<text text-anchor="middle" x="429.5" y="-780.8" font-family="Times,serif" font-size="14.00" fill="#c02700">ww</text>
</g>
</g>
</svg>
