<?xml version="1.0" encoding="UTF-8" standalone="no"?>
<!DOCTYPE svg PUBLIC "-//W3C//DTD SVG 1.1//EN"
 "http://www.w3.org/Graphics/SVG/1.1/DTD/svg11.dtd">
<!-- Generated by graphviz version 2.40.1 (20161225.0304)
 -->
<!-- Title: a_graph Pages: 1 -->
<svg width="376pt" height="362pt"
 viewBox="0.00 0.00 376.00 362.00" xmlns="http://www.w3.org/2000/svg" xmlns:xlink="http://www.w3.org/1999/xlink">
<g id="graph0" class="graph" transform="scale(1 1) rotate(0) translate(4 358)">
<title>a_graph</title>
<polygon fill="#ffffff" stroke="transparent" points="-4,4 -4,-358 372,-358 372,4 -4,4"/>
<!-- T303511 -->
<g id="node1" class="node">
<title>T303511</title>
<polygon fill="none" stroke="#0058ad" points="225.5,-324.5 225.5,-353.5 360.5,-353.5 360.5,-324.5 225.5,-324.5"/>
<text text-anchor="middle" x="261" y="-335.3" font-family="Times,serif" font-size="14.00" fill="#0058ad">a 3410 22</text>
<polyline fill="none" stroke="#0058ad" points="296.5,-324.5 296.5,-353.5 "/>
<text text-anchor="middle" x="328.5" y="-335.3" font-family="Times,serif" font-size="14.00" fill="#0058ad">a 3414 4</text>
</g>
<!-- T303531 -->
<g id="node2" class="node">
<title>T303531</title>
<polygon fill="none" stroke="#0058ad" points="173,-243.5 173,-272.5 315,-272.5 315,-243.5 173,-243.5"/>
<text text-anchor="middle" x="208.5" y="-254.3" font-family="Times,serif" font-size="14.00" fill="#0058ad">a 3410 23</text>
<polyline fill="none" stroke="#0058ad" points="244,-243.5 244,-272.5 "/>
<text text-anchor="middle" x="279.5" y="-254.3" font-family="Times,serif" font-size="14.00" fill="#0058ad">a 3413 10</text>
</g>
<!-- T303511&#45;&gt;T303531 -->
<g id="edge1" class="edge">
<title>T303511:f0&#45;&gt;T303531:f0</title>
<path fill="none" stroke="#c02700" d="M225,-339C198.0223,-339 205.614,-310.675 207.5974,-283.0798"/>
<polygon fill="#c02700" stroke="#c02700" points="211.098,-283.1317 208,-273 204.1036,-282.8523 211.098,-283.1317"/>
<text text-anchor="middle" x="217" y="-294.8" font-family="Times,serif" font-size="14.00" fill="#c02700">ww</text>
</g>
<!-- T303622 -->
<g id="node4" class="node">
<title>T303622</title>
<polygon fill="none" stroke="#0058ad" points="0,-162.5 0,-191.5 312,-191.5 312,-162.5 0,-162.5"/>
<text text-anchor="middle" x="35.5" y="-173.3" font-family="Times,serif" font-size="14.00" fill="#0058ad">a 3414 24</text>
<polyline fill="none" stroke="#0058ad" points="71,-162.5 71,-191.5 "/>
<text text-anchor="middle" x="191.5" y="-173.3" font-family="Times,serif" font-size="14.00" fill="#0058ad">r 3410 [1 2 8 9 12 14 16 17 18 21 22 23]</text>
</g>
<!-- T303531&#45;&gt;T303622 -->
<g id="edge2" class="edge">
<title>T303531:f0&#45;&gt;T303622:f1</title>
<path fill="none" stroke="#c000a5" d="M208,-243C208,-223.1415 196.8193,-217.446 193.1507,-202.2348"/>
<polygon fill="#c000a5" stroke="#c000a5" points="196.5954,-201.5463 192,-192 189.6392,-202.3285 196.5954,-201.5463"/>
<text text-anchor="middle" x="211.5" y="-213.8" font-family="Times,serif" font-size="14.00" fill="#c000a5">wr</text>
</g>
<!-- T303636 -->
<g id="node3" class="node">
<title>T303636</title>
<polygon fill="none" stroke="#0058ad" points="186.5,-81.5 186.5,-110.5 257.5,-110.5 257.5,-81.5 186.5,-81.5"/>
<text text-anchor="middle" x="222" y="-92.3" font-family="Times,serif" font-size="14.00" fill="#0058ad">a 3414 27</text>
</g>
<!-- T303669 -->
<g id="node5" class="node">
<title>T303669</title>
<polygon fill="none" stroke="#0058ad" points="249.5,-.5 249.5,-29.5 320.5,-29.5 320.5,-.5 249.5,-.5"/>
<text text-anchor="middle" x="285" y="-11.3" font-family="Times,serif" font-size="14.00" fill="#0058ad">a 3414 32</text>
</g>
<!-- T303636&#45;&gt;T303669 -->
<g id="edge3" class="edge">
<title>T303636:f0&#45;&gt;T303669:f0</title>
<path fill="none" stroke="#c02700" d="M233.5552,-81.1434C242.9687,-69.0403 256.4191,-51.7468 267.2059,-37.8781"/>
<polygon fill="#c02700" stroke="#c02700" points="270.1414,-39.8048 273.5181,-29.7625 264.6159,-35.5072 270.1414,-39.8048"/>
<text text-anchor="middle" x="270" y="-51.8" font-family="Times,serif" font-size="14.00" fill="#c02700">ww</text>
</g>
<!-- T303622&#45;&gt;T303636 -->
<g id="edge4" class="edge">
<title>T303622:f0&#45;&gt;T303636:f0</title>
<path fill="none" stroke="#c02700" d="M35,-162C35,-94.0834 112.5993,-132.3665 178.491,-113.7503"/>
<polygon fill="#c02700" stroke="#c02700" points="179.7191,-117.0307 188.1171,-110.5713 177.524,-110.3837 179.7191,-117.0307"/>
<text text-anchor="middle" x="57" y="-132.8" font-family="Times,serif" font-size="14.00" fill="#c02700">ww</text>
</g>
<!-- T303669&#45;&gt;T303511 -->
<g id="edge5" class="edge">
<title>T303669:f0&#45;&gt;T303511:f1</title>
<path fill="none" stroke="#c02700" d="M306.3289,-29.7008C324.6057,-44.2093 348,-68.2082 348,-96 348,-258 348,-258 348,-258 348,-284.8283 333.323,-291.9014 329.7684,-313.9452"/>
<polygon fill="#c02700" stroke="#c02700" points="326.2722,-313.7624 329,-324 333.2519,-314.2958 326.2722,-313.7624"/>
<text text-anchor="middle" x="358" y="-173.3" font-family="Times,serif" font-size="14.00" fill="#c02700">ww</text>
</g>
</g>
</svg>
