<?xml version="1.0" encoding="UTF-8" standalone="no"?>
<!DOCTYPE svg PUBLIC "-//W3C//DTD SVG 1.1//EN"
 "http://www.w3.org/Graphics/SVG/1.1/DTD/svg11.dtd">
<!-- Generated by graphviz version 2.40.1 (20161225.0304)
 -->
<!-- Title: a_graph Pages: 1 -->
<svg width="940pt" height="1658pt"
 viewBox="0.00 0.00 939.50 1658.00" xmlns="http://www.w3.org/2000/svg" xmlns:xlink="http://www.w3.org/1999/xlink">
<g id="graph0" class="graph" transform="scale(1 1) rotate(0) translate(4 1654)">
<title>a_graph</title>
<polygon fill="#ffffff" stroke="transparent" points="-4,4 -4,-1654 935.5,-1654 935.5,4 -4,4"/>
<!-- T10158 -->
<g id="node1" class="node">
<title>T10158</title>
<polygon fill="none" stroke="#0058ad" points="757,-1620.5 757,-1649.5 864,-1649.5 864,-1620.5 757,-1620.5"/>
<text text-anchor="middle" x="785.5" y="-1631.3" font-family="Times,serif" font-size="14.00" fill="#0058ad">a 84 32</text>
<polyline fill="none" stroke="#0058ad" points="814,-1620.5 814,-1649.5 "/>
<text text-anchor="middle" x="839" y="-1631.3" font-family="Times,serif" font-size="14.00" fill="#0058ad">a 90 8</text>
</g>
<!-- T10216 -->
<g id="node2" class="node">
<title>T10216</title>
<polygon fill="none" stroke="#0058ad" points="748.5,-1539.5 748.5,-1568.5 802.5,-1568.5 802.5,-1539.5 748.5,-1539.5"/>
<text text-anchor="middle" x="775.5" y="-1550.3" font-family="Times,serif" font-size="14.00" fill="#0058ad">a 90 9</text>
</g>
<!-- T10158&#45;&gt;T10216 -->
<g id="edge1" class="edge">
<title>T10158:f1&#45;&gt;T10216:f0</title>
<path fill="none" stroke="#c02700" d="M839.5,-1620C839.5,-1608.7195 819.988,-1589.7744 802.5113,-1575.068"/>
<polygon fill="#c02700" stroke="#c02700" points="804.6506,-1572.2959 794.7021,-1568.652 800.2069,-1577.7045 804.6506,-1572.2959"/>
<text text-anchor="middle" x="840.5" y="-1590.8" font-family="Times,serif" font-size="14.00" fill="#c02700">ww</text>
</g>
<!-- T10555 -->
<g id="node15" class="node">
<title>T10555</title>
<polygon fill="none" stroke="#0058ad" points="593,-1458.5 593,-1487.5 714,-1487.5 714,-1458.5 593,-1458.5"/>
<text text-anchor="middle" x="621.5" y="-1469.3" font-family="Times,serif" font-size="14.00" fill="#0058ad">a 90 10</text>
<polyline fill="none" stroke="#0058ad" points="650,-1458.5 650,-1487.5 "/>
<text text-anchor="middle" x="682" y="-1469.3" font-family="Times,serif" font-size="14.00" fill="#0058ad">a 123 27</text>
</g>
<!-- T10216&#45;&gt;T10555 -->
<g id="edge2" class="edge">
<title>T10216:f0&#45;&gt;T10555:f0</title>
<path fill="none" stroke="#c02700" d="M749.3749,-1539.4201C749.0822,-1539.2784 748.7905,-1539.1383 748.5,-1539 696.9095,-1514.4292 630.1661,-1544.6964 622.273,-1498.019"/>
<polygon fill="#c02700" stroke="#c02700" points="625.7589,-1497.7011 621.5,-1488 618.7797,-1498.2396 625.7589,-1497.7011"/>
<text text-anchor="middle" x="649.5" y="-1509.8" font-family="Times,serif" font-size="14.00" fill="#c02700">ww</text>
</g>
<!-- T10581 -->
<g id="node3" class="node">
<title>T10581</title>
<polygon fill="none" stroke="#0058ad" points="336.5,-1134.5 336.5,-1163.5 666.5,-1163.5 666.5,-1134.5 336.5,-1134.5"/>
<text text-anchor="middle" x="368.5" y="-1145.3" font-family="Times,serif" font-size="14.00" fill="#0058ad">a 116 14</text>
<polyline fill="none" stroke="#0058ad" points="400.5,-1134.5 400.5,-1163.5 "/>
<text text-anchor="middle" x="533.5" y="-1145.3" font-family="Times,serif" font-size="14.00" fill="#0058ad">r 120 [1 2 3 6 7 8 9 11 13 14 15 18 19 20 21]</text>
</g>
<!-- T10629 -->
<g id="node13" class="node">
<title>T10629</title>
<polygon fill="none" stroke="#0058ad" points="0,-1053.5 0,-1082.5 399,-1082.5 399,-1053.5 0,-1053.5"/>
<text text-anchor="middle" x="167.5" y="-1064.3" font-family="Times,serif" font-size="14.00" fill="#0058ad">r 120 [1 2 3 6 7 8 9 11 13 14 15 18 19 20 21 22 23 24 25]</text>
<polyline fill="none" stroke="#0058ad" points="335,-1053.5 335,-1082.5 "/>
<text text-anchor="middle" x="367" y="-1064.3" font-family="Times,serif" font-size="14.00" fill="#0058ad">a 116 16</text>
</g>
<!-- T10581&#45;&gt;T10629 -->
<g id="edge3" class="edge">
<title>T10581:f0&#45;&gt;T10629:f1</title>
<path fill="none" stroke="#c02700" d="M368.5,-1134C368.5,-1115.2256 367.8142,-1108.1185 367.5785,-1093.3548"/>
<polygon fill="#c02700" stroke="#c02700" points="371.0758,-1092.9732 367.5,-1083 364.076,-1093.0263 371.0758,-1092.9732"/>
<text text-anchor="middle" x="378.5" y="-1104.8" font-family="Times,serif" font-size="14.00" fill="#c02700">ww</text>
</g>
<!-- T10693 -->
<g id="node4" class="node">
<title>T10693</title>
<polygon fill="none" stroke="#0058ad" points="334.5,-972.5 334.5,-1001.5 462.5,-1001.5 462.5,-972.5 334.5,-972.5"/>
<text text-anchor="middle" x="366.5" y="-983.3" font-family="Times,serif" font-size="14.00" fill="#0058ad">a 116 17</text>
<polyline fill="none" stroke="#0058ad" points="398.5,-972.5 398.5,-1001.5 "/>
<text text-anchor="middle" x="430.5" y="-983.3" font-family="Times,serif" font-size="14.00" fill="#0058ad">a 120 31</text>
</g>
<!-- T10733 -->
<g id="node14" class="node">
<title>T10733</title>
<polygon fill="none" stroke="#0058ad" points="398.5,-891.5 398.5,-920.5 668.5,-920.5 668.5,-891.5 398.5,-891.5"/>
<text text-anchor="middle" x="430.5" y="-902.3" font-family="Times,serif" font-size="14.00" fill="#0058ad">a 120 32</text>
<polyline fill="none" stroke="#0058ad" points="462.5,-891.5 462.5,-920.5 "/>
<text text-anchor="middle" x="565.5" y="-902.3" font-family="Times,serif" font-size="14.00" fill="#0058ad">r 125 [4 6 7 11 13 14 15 16 17 19]</text>
</g>
<!-- T10693&#45;&gt;T10733 -->
<g id="edge4" class="edge">
<title>T10693:f1&#45;&gt;T10733:f0</title>
<path fill="none" stroke="#c02700" d="M430.5,-972C430.5,-953.2292 430.5,-946.1168 430.5,-931.3535"/>
<polygon fill="#c02700" stroke="#c02700" points="434.0001,-931 430.5,-921 427.0001,-931 434.0001,-931"/>
<text text-anchor="middle" x="440.5" y="-942.8" font-family="Times,serif" font-size="14.00" fill="#c02700">ww</text>
</g>
<!-- T8785 -->
<g id="node5" class="node">
<title>T8785</title>
<polygon fill="none" stroke="#0058ad" points="429.5,-162.5 429.5,-191.5 845.5,-191.5 845.5,-162.5 429.5,-162.5"/>
<text text-anchor="middle" x="609" y="-173.3" font-family="Times,serif" font-size="14.00" fill="#0058ad">r 102 [1 2 3 5 8 9 10 12 15 17 18 19 22 23 24 25 26 28 29 31]</text>
<polyline fill="none" stroke="#0058ad" points="788.5,-162.5 788.5,-191.5 "/>
<text text-anchor="middle" x="817" y="-173.3" font-family="Times,serif" font-size="14.00" fill="#0058ad">a 97 31</text>
</g>
<!-- T8641 -->
<g id="node21" class="node">
<title>T8641</title>
<polygon fill="none" stroke="#0058ad" points="756.5,-81.5 756.5,-110.5 870.5,-110.5 870.5,-81.5 756.5,-81.5"/>
<text text-anchor="middle" x="785" y="-92.3" font-family="Times,serif" font-size="14.00" fill="#0058ad">a 97 26</text>
<polyline fill="none" stroke="#0058ad" points="813.5,-81.5 813.5,-110.5 "/>
<text text-anchor="middle" x="842" y="-92.3" font-family="Times,serif" font-size="14.00" fill="#0058ad">a 102 7</text>
</g>
<!-- T8785&#45;&gt;T8641 -->
<g id="edge5" class="edge">
<title>T8785:f1&#45;&gt;T8641:f0</title>
<path fill="none" stroke="#c02700" d="M817.5,-162C817.5,-139.0096 793.5698,-137.7694 786.4655,-121.2361"/>
<polygon fill="#c02700" stroke="#c02700" points="789.823,-120.1606 784.5,-111 782.9486,-121.4806 789.823,-120.1606"/>
<text text-anchor="middle" x="820.5" y="-132.8" font-family="Times,serif" font-size="14.00" fill="#c02700">ww</text>
</g>
<!-- T10559 -->
<g id="node6" class="node">
<title>T10559</title>
<polygon fill="none" stroke="#0058ad" points="594.5,-1377.5 594.5,-1406.5 722.5,-1406.5 722.5,-1377.5 594.5,-1377.5"/>
<text text-anchor="middle" x="626.5" y="-1388.3" font-family="Times,serif" font-size="14.00" fill="#0058ad">a 123 28</text>
<polyline fill="none" stroke="#0058ad" points="658.5,-1377.5 658.5,-1406.5 "/>
<text text-anchor="middle" x="690.5" y="-1388.3" font-family="Times,serif" font-size="14.00" fill="#0058ad">a 123 29</text>
</g>
<!-- T10573 -->
<g id="node18" class="node">
<title>T10573</title>
<polygon fill="none" stroke="#0058ad" points="419,-1296.5 419,-1325.5 876,-1325.5 876,-1296.5 419,-1296.5"/>
<text text-anchor="middle" x="447.5" y="-1307.3" font-family="Times,serif" font-size="14.00" fill="#0058ad">a 124 5</text>
<polyline fill="none" stroke="#0058ad" points="476,-1296.5 476,-1325.5 "/>
<text text-anchor="middle" x="676" y="-1307.3" font-family="Times,serif" font-size="14.00" fill="#0058ad">r 123 [1 2 3 6 9 10 11 13 14 16 17 18 19 20 21 22 24 25 26 27 28 29]</text>
</g>
<!-- T10559&#45;&gt;T10573 -->
<g id="edge6" class="edge">
<title>T10559:f1&#45;&gt;T10573:f1</title>
<path fill="none" stroke="#c000a5" d="M690.5,-1377C690.5,-1357.3511 680.7169,-1351.3396 677.5068,-1336.1654"/>
<polygon fill="#c000a5" stroke="#c000a5" points="680.9687,-1335.6063 676.5,-1326 674.0028,-1336.2963 680.9687,-1335.6063"/>
<text text-anchor="middle" x="695" y="-1347.8" font-family="Times,serif" font-size="14.00" fill="#c000a5">wr</text>
</g>
<!-- T10738 -->
<g id="node7" class="node">
<title>T10738</title>
<polygon fill="none" stroke="#0058ad" points="216,-810.5 216,-839.5 701,-839.5 701,-810.5 216,-810.5"/>
<text text-anchor="middle" x="426.5" y="-821.3" font-family="Times,serif" font-size="14.00" fill="#0058ad">r 120 [1 2 3 6 7 8 9 11 13 14 15 18 19 20 21 22 23 24 25 27 29 30 31 32]</text>
<polyline fill="none" stroke="#0058ad" points="637,-810.5 637,-839.5 "/>
<text text-anchor="middle" x="669" y="-821.3" font-family="Times,serif" font-size="14.00" fill="#0058ad">a 124 22</text>
</g>
<!-- T10752 -->
<g id="node19" class="node">
<title>T10752</title>
<polygon fill="none" stroke="#0058ad" points="632.5,-729.5 632.5,-758.5 696.5,-758.5 696.5,-729.5 632.5,-729.5"/>
<text text-anchor="middle" x="664.5" y="-740.3" font-family="Times,serif" font-size="14.00" fill="#0058ad">a 124 23</text>
</g>
<!-- T10738&#45;&gt;T10752 -->
<g id="edge7" class="edge">
<title>T10738:f1&#45;&gt;T10752:f0</title>
<path fill="none" stroke="#c02700" d="M669.5,-810C669.5,-796.3129 668.4176,-781.0748 667.26,-768.6918"/>
<polygon fill="#c02700" stroke="#c02700" points="670.7338,-768.2542 666.2488,-758.6556 663.769,-768.9561 670.7338,-768.2542"/>
<text text-anchor="middle" x="679.5" y="-780.8" font-family="Times,serif" font-size="14.00" fill="#c02700">ww</text>
</g>
<!-- T10799 -->
<g id="node8" class="node">
<title>T10799</title>
<polygon fill="none" stroke="#0058ad" points="663.5,-567.5 663.5,-596.5 727.5,-596.5 727.5,-567.5 663.5,-567.5"/>
<text text-anchor="middle" x="695.5" y="-578.3" font-family="Times,serif" font-size="14.00" fill="#0058ad">a 124 27</text>
</g>
<!-- T10823 -->
<g id="node10" class="node">
<title>T10823</title>
<polygon fill="none" stroke="#0058ad" points="418,-486.5 418,-515.5 861,-515.5 861,-486.5 418,-486.5"/>
<text text-anchor="middle" x="611" y="-497.3" font-family="Times,serif" font-size="14.00" fill="#0058ad">r 124 [1 2 3 4 5 6 7 10 11 12 13 14 15 16 18 19 20 22 23 24 25 27]</text>
<polyline fill="none" stroke="#0058ad" points="804,-486.5 804,-515.5 "/>
<text text-anchor="middle" x="832.5" y="-497.3" font-family="Times,serif" font-size="14.00" fill="#0058ad">a 75 28</text>
</g>
<!-- T10799&#45;&gt;T10823 -->
<g id="edge8" class="edge">
<title>T10799:f0&#45;&gt;T10823:f0</title>
<path fill="none" stroke="#c000a5" d="M668.6055,-567.4228C648.5669,-555.8098 623.1533,-539.2673 613.9906,-525.4604"/>
<polygon fill="#c000a5" stroke="#c000a5" points="617.2452,-524.1702 610.5,-516 610.678,-526.5933 617.2452,-524.1702"/>
<text text-anchor="middle" x="646" y="-537.8" font-family="Times,serif" font-size="14.00" fill="#c000a5">wr</text>
</g>
<!-- T10579 -->
<g id="node9" class="node">
<title>T10579</title>
<polygon fill="none" stroke="#0058ad" points="394,-1215.5 394,-1244.5 565,-1244.5 565,-1215.5 394,-1215.5"/>
<text text-anchor="middle" x="447.5" y="-1226.3" font-family="Times,serif" font-size="14.00" fill="#0058ad">r 124 [1 2 3 4 5]</text>
<polyline fill="none" stroke="#0058ad" points="501,-1215.5 501,-1244.5 "/>
<text text-anchor="middle" x="533" y="-1226.3" font-family="Times,serif" font-size="14.00" fill="#0058ad">a 120 21</text>
</g>
<!-- T10579&#45;&gt;T10581 -->
<g id="edge9" class="edge">
<title>T10579:f1&#45;&gt;T10581:f1</title>
<path fill="none" stroke="#c000a5" d="M533.5,-1215C533.5,-1196.2292 533.5,-1189.1168 533.5,-1174.3535"/>
<polygon fill="#c000a5" stroke="#c000a5" points="537.0001,-1174 533.5,-1164 530.0001,-1174 537.0001,-1174"/>
<text text-anchor="middle" x="541" y="-1185.8" font-family="Times,serif" font-size="14.00" fill="#c000a5">wr</text>
</g>
<!-- T10995 -->
<g id="node12" class="node">
<title>T10995</title>
<polygon fill="none" stroke="#0058ad" points="594.5,-405.5 594.5,-434.5 824.5,-434.5 824.5,-405.5 594.5,-405.5"/>
<text text-anchor="middle" x="681" y="-416.3" font-family="Times,serif" font-size="14.00" fill="#0058ad">r 128 [1 2 3 5 6 7 8 9 10 11]</text>
<polyline fill="none" stroke="#0058ad" points="767.5,-405.5 767.5,-434.5 "/>
<text text-anchor="middle" x="796" y="-416.3" font-family="Times,serif" font-size="14.00" fill="#0058ad">a 75 29</text>
</g>
<!-- T10823&#45;&gt;T10995 -->
<g id="edge10" class="edge">
<title>T10823:f1&#45;&gt;T10995:f1</title>
<path fill="none" stroke="#c02700" d="M832.5,-486C832.5,-462.1568 805.9131,-462.1196 798.4355,-444.9718"/>
<polygon fill="#c02700" stroke="#c02700" points="801.8414,-444.1499 796.5,-435 794.9696,-445.4837 801.8414,-444.1499"/>
<text text-anchor="middle" x="835.5" y="-456.8" font-family="Times,serif" font-size="14.00" fill="#c02700">ww</text>
</g>
<!-- T8761 -->
<g id="node11" class="node">
<title>T8761</title>
<polygon fill="none" stroke="#0058ad" points="505.5,-243.5 505.5,-272.5 869.5,-272.5 869.5,-243.5 505.5,-243.5"/>
<text text-anchor="middle" x="659" y="-254.3" font-family="Times,serif" font-size="14.00" fill="#0058ad">r 102 [1 2 3 5 8 9 10 12 15 17 18 19 22 23 24 25 26]</text>
<polyline fill="none" stroke="#0058ad" points="812.5,-243.5 812.5,-272.5 "/>
<text text-anchor="middle" x="841" y="-254.3" font-family="Times,serif" font-size="14.00" fill="#0058ad">a 97 30</text>
</g>
<!-- T8761&#45;&gt;T8785 -->
<g id="edge11" class="edge">
<title>T8761:f1&#45;&gt;T8785:f1</title>
<path fill="none" stroke="#c02700" d="M841.5,-243C841.5,-221.8632 824.4141,-217.9213 819.0747,-202.1579"/>
<polygon fill="#c02700" stroke="#c02700" points="822.4907,-201.3458 817.5,-192 815.5733,-202.4182 822.4907,-201.3458"/>
<text text-anchor="middle" x="846.5" y="-213.8" font-family="Times,serif" font-size="14.00" fill="#c02700">ww</text>
</g>
<!-- T8677 -->
<g id="node16" class="node">
<title>T8677</title>
<polygon fill="none" stroke="#0058ad" points="760.5,-324.5 760.5,-353.5 874.5,-353.5 874.5,-324.5 760.5,-324.5"/>
<text text-anchor="middle" x="789" y="-335.3" font-family="Times,serif" font-size="14.00" fill="#0058ad">a 75 15</text>
<polyline fill="none" stroke="#0058ad" points="817.5,-324.5 817.5,-353.5 "/>
<text text-anchor="middle" x="846" y="-335.3" font-family="Times,serif" font-size="14.00" fill="#0058ad">a 97 29</text>
</g>
<!-- T10995&#45;&gt;T8677 -->
<g id="edge12" class="edge">
<title>T10995:f1&#45;&gt;T8677:f0</title>
<path fill="none" stroke="#c02700" d="M796.5,-405C796.5,-385.8204 790.9097,-379.1013 789.0753,-364.0103"/>
<polygon fill="#c02700" stroke="#c02700" points="792.5681,-363.7827 788.5,-354 785.5797,-364.1844 792.5681,-363.7827"/>
<text text-anchor="middle" x="804.5" y="-375.8" font-family="Times,serif" font-size="14.00" fill="#c02700">ww</text>
</g>
<!-- T10629&#45;&gt;T10693 -->
<g id="edge13" class="edge">
<title>T10629:f1&#45;&gt;T10693:f0</title>
<path fill="none" stroke="#c02700" d="M367.5,-1053C367.5,-1034.2256 366.8142,-1027.1185 366.5785,-1012.3548"/>
<polygon fill="#c02700" stroke="#c02700" points="370.0758,-1011.9732 366.5,-1002 363.076,-1012.0263 370.0758,-1011.9732"/>
<text text-anchor="middle" x="377.5" y="-1023.8" font-family="Times,serif" font-size="14.00" fill="#c02700">ww</text>
</g>
<!-- T10733&#45;&gt;T10738 -->
<g id="edge14" class="edge">
<title>T10733:f0&#45;&gt;T10738:f0</title>
<path fill="none" stroke="#c000a5" d="M430.5,-891C430.5,-872.1715 427.7568,-865.1447 426.8139,-850.373"/>
<polygon fill="#c000a5" stroke="#c000a5" points="430.3009,-849.8895 426.5,-840 423.3041,-850.1013 430.3009,-849.8895"/>
<text text-anchor="middle" x="437" y="-861.8" font-family="Times,serif" font-size="14.00" fill="#c000a5">wr</text>
</g>
<!-- T10555&#45;&gt;T10559 -->
<g id="edge15" class="edge">
<title>T10555:f1&#45;&gt;T10559:f0</title>
<path fill="none" stroke="#c02700" d="M682.5,-1458C682.5,-1428.2814 638.856,-1437.5234 628.6269,-1416.9362"/>
<polygon fill="#c02700" stroke="#c02700" points="632.0157,-1416.0459 626.5,-1407 625.1707,-1417.5111 632.0157,-1416.0459"/>
<text text-anchor="middle" x="682.5" y="-1428.8" font-family="Times,serif" font-size="14.00" fill="#c02700">ww</text>
</g>
<!-- T8677&#45;&gt;T8761 -->
<g id="edge16" class="edge">
<title>T8677:f1&#45;&gt;T8761:f1</title>
<path fill="none" stroke="#c02700" d="M846.5,-324C846.5,-305.1392 843.071,-298.1604 841.8923,-283.384"/>
<polygon fill="#c02700" stroke="#c02700" points="845.3752,-282.8607 841.5,-273 838.3802,-283.125 845.3752,-282.8607"/>
<text text-anchor="middle" x="855.5" y="-294.8" font-family="Times,serif" font-size="14.00" fill="#c02700">ww</text>
</g>
<!-- T8683 -->
<g id="node17" class="node">
<title>T8683</title>
<polygon fill="none" stroke="#0058ad" points="795.5,-.5 795.5,-29.5 931.5,-29.5 931.5,-.5 795.5,-.5"/>
<text text-anchor="middle" x="838.5" y="-11.3" font-family="Times,serif" font-size="14.00" fill="#0058ad">r 102 [4 6 7]</text>
<polyline fill="none" stroke="#0058ad" points="881.5,-.5 881.5,-29.5 "/>
<text text-anchor="middle" x="906.5" y="-11.3" font-family="Times,serif" font-size="14.00" fill="#0058ad">a 90 4</text>
</g>
<!-- T8683&#45;&gt;T10158 -->
<g id="edge17" class="edge">
<title>T8683:f1&#45;&gt;T10158:f1</title>
<path fill="none" stroke="#c02700" d="M906.5,-30C906.5,-59.3468 904.5,-66.6532 904.5,-96 904.5,-1554 904.5,-1554 904.5,-1554 904.5,-1590.3862 904.6235,-1627.3468 874.763,-1633.9571"/>
<polygon fill="#c02700" stroke="#c02700" points="874.0949,-1630.5069 864.5,-1635 874.8026,-1637.4711 874.0949,-1630.5069"/>
<text text-anchor="middle" x="914.5" y="-821.3" font-family="Times,serif" font-size="14.00" fill="#c02700">ww</text>
</g>
<!-- T10573&#45;&gt;T10579 -->
<g id="edge18" class="edge">
<title>T10573:f0&#45;&gt;T10579:f0</title>
<path fill="none" stroke="#c000a5" d="M447.5,-1296C447.5,-1277.2292 447.5,-1270.1168 447.5,-1255.3535"/>
<polygon fill="#c000a5" stroke="#c000a5" points="451.0001,-1255 447.5,-1245 444.0001,-1255 451.0001,-1255"/>
<text text-anchor="middle" x="455" y="-1266.8" font-family="Times,serif" font-size="14.00" fill="#c000a5">wr</text>
</g>
<!-- T10787 -->
<g id="node20" class="node">
<title>T10787</title>
<polygon fill="none" stroke="#0058ad" points="599.5,-648.5 599.5,-677.5 727.5,-677.5 727.5,-648.5 599.5,-648.5"/>
<text text-anchor="middle" x="631.5" y="-659.3" font-family="Times,serif" font-size="14.00" fill="#0058ad">a 124 24</text>
<polyline fill="none" stroke="#0058ad" points="663.5,-648.5 663.5,-677.5 "/>
<text text-anchor="middle" x="695.5" y="-659.3" font-family="Times,serif" font-size="14.00" fill="#0058ad">a 124 25</text>
</g>
<!-- T10752&#45;&gt;T10787 -->
<g id="edge19" class="edge">
<title>T10752:f0&#45;&gt;T10787:f0</title>
<path fill="none" stroke="#c02700" d="M652.212,-729.3078C644.5155,-718.8611 635.5087,-703.9587 632.5204,-688.3331"/>
<polygon fill="#c02700" stroke="#c02700" points="635.9659,-687.6076 631.5,-678 628.9997,-688.2956 635.9659,-687.6076"/>
<text text-anchor="middle" x="650.5" y="-699.8" font-family="Times,serif" font-size="14.00" fill="#c02700">ww</text>
</g>
<!-- T10787&#45;&gt;T10799 -->
<g id="edge20" class="edge">
<title>T10787:f1&#45;&gt;T10799:f0</title>
<path fill="none" stroke="#c02700" d="M695.5,-648C695.5,-634.3521 695.5,-619.1166 695.5,-606.7254"/>
<polygon fill="#c02700" stroke="#c02700" points="699.0001,-606.6796 695.5,-596.6796 692.0001,-606.6797 699.0001,-606.6796"/>
<text text-anchor="middle" x="705.5" y="-618.8" font-family="Times,serif" font-size="14.00" fill="#c02700">ww</text>
</g>
<!-- T8641&#45;&gt;T8683 -->
<g id="edge21" class="edge">
<title>T8641:f1&#45;&gt;T8683:f0</title>
<path fill="none" stroke="#c000a5" d="M842.5,-81C842.5,-62.1715 839.7568,-55.1447 838.8139,-40.373"/>
<polygon fill="#c000a5" stroke="#c000a5" points="842.3009,-39.8895 838.5,-30 835.3041,-40.1013 842.3009,-39.8895"/>
<text text-anchor="middle" x="849" y="-51.8" font-family="Times,serif" font-size="14.00" fill="#c000a5">wr</text>
</g>
</g>
</svg>
